<?xml version="1.0" encoding="utf-8"?>
<!-- Uploaded to: SVG Repo, www.svgrepo.com, Generator: SVG Repo Mixer Tools -->
<svg fill="#000000" height="800px" width="800px" version="1.2" baseProfile="tiny" id="Layer_1" xmlns="http://www.w3.org/2000/svg" xmlns:xlink="http://www.w3.org/1999/xlink"
	  viewBox="0 0 256 244" xml:space="preserve">
<g>
	<path d="M127.7,223.9v8h122.5v-8h-10l-50.8-97.4l-50.8,97.4H127.7z M189.4,171.6l27.2,52.2h-54.5L189.4,171.6z"/>
	<polygon points="92.4,236.4 92.3,184 147.6,183.8 121.4,151.6 139.8,151.6 115.4,121.3 132.2,121.3 108.3,90.7 124.4,90.7 
		101.6,60.4 116.5,60.4 74.3,1.3 32.1,60.4 47,60.4 24.3,90.7 40.4,90.7 16.4,121.3 33.2,121.3 8.9,151.6 27.2,151.6 1,183.8 
		53.3,184 53.4,236.4 0,236.4 0,244 256,244 256,236.4 	"/>
</g>
</svg>