<?xml version="1.0" encoding="utf-8"?>
<!-- Uploaded to: SVG Repo, www.svgrepo.com, Generator: SVG Repo Mixer Tools -->
<svg fill="#000000" height="800px" width="800px" version="1.2" baseProfile="tiny" id="Layer_1" xmlns="http://www.w3.org/2000/svg" xmlns:xlink="http://www.w3.org/1999/xlink"
	  viewBox="-351 153 256 256" xml:space="preserve">
<path d="M-187.1,350.7c1,0,1.6,0,1.6,0v-8.9v-3.2h-7c-5.3-12.5-9.4-24.1-12.5-34.7h5.6v-7.3h-7.6c-9.2-34.2-11.7-103.1-11.7-103.1
	c2.2-1.4,3.6-3.9,3.6-6.7c0-3.8-2.7-7-6.3-7.8v-13h-3.3v13c-3.6,0.8-6.3,4-6.3,7.8c0,2.8,1.4,5.2,3.6,6.7c0,0-2.5,68.8-11.7,103.1
	h-7.6v7.3h5.6c-3.1,10.6-7.2,22.3-12.5,34.7h-7v12.1h1.6c-7.3,15.5-16.4,32.1-27.8,49.3h28.9c0,0,0-38.6,34.9-38.6
	s34.9,38.6,34.9,38.6h28.9C-170.7,382.8-179.8,366.2-187.1,350.7z M-231,311.5h16c1.3,7.5,4.5,21.5,5.8,27.1h-27.7
	C-235.6,333-232.3,319-231,311.5z"/>
</svg>