<?xml version="1.0" encoding="utf-8"?>
<!-- Uploaded to: SVG Repo, www.svgrepo.com, Generator: SVG Repo Mixer Tools -->
<svg fill="#000000" version="1.1" id="Kiev" xmlns="http://www.w3.org/2000/svg" xmlns:xlink="http://www.w3.org/1999/xlink" 
	 width="800px" height="800px" viewBox="0 0 256 256" enable-background="new 0 0 256 256" xml:space="preserve">
<path d="M237,151v-16c2.971-2.744,4.806-6.661,4.806-11.028c0-8.841-9.249-13.25-13.806-16.972V96h4c1.105,0,2-0.895,2-2l0,0
	c0-1.105-0.895-2-2-2h-4v-5c0-1.105-0.895-2-2-2l0,0c-1.105,0-2,0.895-2,2v5h-4c-1.105,0-2,0.895-2,2l0,0c0,1.105,0.895,2,2,2h4v11
	c-4.617,3.698-13.772,8.382-13.772,16.972c0,4.367,1.801,8.284,4.772,11.028v16l-1.97,0.657c-16.739,5.58-28.03,21.245-28.03,38.89
	V206h-16v-25h-11v-54h-8V99.763c0-9.973-6.481-18.788-16-21.763l0,0V67c2.887-2.672,4.797-6.093,4.797-10.341
	c0-8.495-8.335-12.08-12.797-15.659V29h5c1.105,0,2-0.895,2-2v0c0-1.105-0.895-2-2-2h-5v-6c0-1.105-0.895-2-2-2l0,0
	c-1.105,0-2,0.895-2,2v6h-5c-1.105,0-2,0.895-2,2v0c0,1.105,0.895,2,2,2h5v12c-4.474,3.603-12.421,7.26-12.421,15.659
	c0,4.247,1.534,7.668,4.421,10.341v11l0,0c-9.519,2.975-16,11.79-16,21.763V126h-8v55H79v57h36v-15.5c0-5.247,4.253-9.5,9.5-9.5h0
	c5.247,0,9.5,4.253,9.5,9.5V238h115v-87H237z M129,164h-10v-17c0-2.761,2.239-5,5-5h0c2.761,0,5,2.239,5,5V164z M27,126v-13H8v33h6
	v12H8v14h6v12H8v14h6v12H8v28h46V126H27z M27,210v-12h12v12H27z M27,184v-12h12v12H27z M27,158v-12h12v12H27z"/>
</svg>